<svg viewBox="0 0 20 21"
     xmlns="http://www.w3.org/2000/svg"
     xmlns:xlink="http://www.w3.org/1999/xlink"
     width="20px" height="21px">
    <path fill-rule="evenodd"  fill="rgb(33, 33, 33)"
          d="M18.661,12.688 L16.335,13.952 L12.045,10.058 L15.545,6.614 L18.660,8.306 C19.499,8.762 19.999,9.581 20.000,10.497 C20.000,11.413 19.499,12.232 18.661,12.688 ZM1.345,0.343 C2.175,-0.108 3.155,-0.118 3.989,0.336 L14.331,5.954 L11.065,9.169 L1.345,0.343 ZM0.348,19.719 C0.124,19.345 -0.000,18.917 -0.000,18.468 L-0.000,2.528 C-0.000,2.064 0.136,1.627 0.373,1.245 L10.123,10.098 L0.348,19.719 ZM15.105,14.622 L3.989,20.660 C3.572,20.887 3.116,21.000 2.663,21.000 C2.193,21.000 1.727,20.874 1.301,20.635 L11.103,10.988 L15.105,14.622 Z"/>
</svg>
