<?xml version="1.0" encoding="UTF-8"?>
<svg viewBox="0 0 19 17" width="19px" height="17px">
    <path fill-rule="evenodd"  fill="rgb(214, 214, 214)"
          d="M18.109,17.000 L6.828,17.000 C6.336,17.000 5.937,16.577 5.937,16.055 L5.937,12.278 C5.937,11.756 6.336,11.333 6.828,11.333 C7.320,11.333 7.719,11.756 7.719,12.278 L7.719,15.111 L17.219,15.111 L17.219,1.889 L7.719,1.889 L7.719,4.722 C7.719,5.244 7.320,5.667 6.828,5.667 C6.336,5.667 5.937,5.244 5.937,4.722 L5.937,0.944 C5.937,0.423 6.336,-0.000 6.828,-0.000 L18.109,-0.000 C18.601,-0.000 19.000,0.423 19.000,0.944 L19.000,16.055 C19.000,16.577 18.601,17.000 18.109,17.000 ZM10.058,6.334 C9.710,5.966 9.710,5.368 10.058,4.999 C10.405,4.630 10.969,4.630 11.317,4.999 L13.989,7.832 C13.990,7.833 13.991,7.834 13.992,7.835 C14.011,7.857 14.030,7.878 14.048,7.901 C14.057,7.912 14.064,7.924 14.072,7.936 C14.081,7.949 14.091,7.962 14.100,7.976 C14.108,7.989 14.116,8.003 14.124,8.017 C14.131,8.030 14.138,8.042 14.145,8.055 C14.152,8.069 14.158,8.083 14.164,8.098 C14.170,8.111 14.177,8.125 14.182,8.139 C14.187,8.152 14.192,8.167 14.197,8.181 C14.202,8.196 14.207,8.211 14.211,8.226 C14.215,8.240 14.218,8.254 14.222,8.269 C14.226,8.284 14.230,8.300 14.233,8.315 C14.236,8.332 14.238,8.349 14.240,8.365 C14.242,8.379 14.244,8.393 14.245,8.407 C14.248,8.437 14.250,8.468 14.250,8.499 C14.250,8.499 14.250,8.500 14.250,8.500 C14.250,8.500 14.250,8.501 14.250,8.501 C14.250,8.532 14.248,8.563 14.245,8.593 C14.244,8.607 14.242,8.621 14.240,8.635 C14.238,8.652 14.236,8.668 14.233,8.684 C14.230,8.700 14.225,8.716 14.222,8.732 C14.218,8.746 14.215,8.760 14.211,8.774 C14.207,8.789 14.202,8.804 14.196,8.820 C14.192,8.834 14.187,8.848 14.182,8.861 C14.177,8.875 14.170,8.889 14.164,8.903 C14.158,8.917 14.152,8.931 14.145,8.945 C14.138,8.958 14.130,8.971 14.123,8.984 C14.115,8.998 14.108,9.011 14.100,9.024 C14.091,9.039 14.081,9.052 14.071,9.066 C14.063,9.077 14.056,9.088 14.048,9.099 C14.029,9.123 14.010,9.146 13.989,9.168 L11.317,12.001 C11.143,12.186 10.915,12.278 10.687,12.278 C10.459,12.278 10.231,12.186 10.058,12.001 C9.710,11.632 9.710,11.034 10.058,10.665 L11.209,9.444 L0.891,9.444 C0.399,9.444 -0.000,9.022 -0.000,8.500 C-0.000,7.978 0.399,7.556 0.891,7.556 L11.209,7.556 L10.058,6.334 Z"/>
</svg>